<svg xmlns="http://www.w3.org/2000/svg"  viewBox="0 0 24 24" width="384px" height="384px"><path d="M12.7 7.4H18.4V11.600000000000001H12.7z" opacity=".3" transform="rotate(-45.001 15.5 9.5)"/><path d="M3 11.5L8.5 6 12 9.5 6 15.5 3 12.5z" opacity=".3"/><path d="M18.7 16.5l-1.4-1.4 2.4-2.4c.2-.2.3-.5.3-.7 0-.3-.1-.5-.3-.8L19 10.6l-3.1 3.1-1.4-1.4L19 7.8l2.1 2.1c.6.6.9 1.4.9 2.2 0 .8-.3 1.6-.9 2.1L18.7 16.5zM11.8 11.1L6.8 6l3.1-3.1c1.2-1.2 3.2-1.1 4.3 0l2.9 2.9L11.8 11.1zM9.6 6l2.2 2.2 2.4-2.4-1.5-1.5c-.4-.4-1.1-.4-1.5 0L9.6 6z"/><path d="M12,22c-0.8,0-1.6-0.3-2.2-0.9l-5.4-5.4l7.4-7.4l7.6,7.6l-5.3,5.3C13.6,21.7,12.8,22,12,22z M7.2,15.7l4,4 c0.4,0.4,1.1,0.4,1.5,0l3.9-3.9l-4.8-4.8L7.2,15.7z"/><path d="M16.7 5.2H18.7V10.600000000000001H16.7z" transform="rotate(-44.976 17.735 7.887)"/><path d="M5.3,16.5l-2.4-2.4C2.3,13.6,2,12.8,2,12s0.3-1.6,0.9-2.2l4.6-4.6l1.4,1.4l-4.6,4.6C4.1,11.5,4,11.7,4,12 c0,0.3,0.1,0.5,0.3,0.7l2.4,2.4L5.3,16.5z"/></svg>